<svg xmlns="http://www.w3.org/2000/svg" version="1.1" xmlns:xlink="http://www.w3.org/1999/xlink" xmlns:svgjs="http://svgjs.dev/svgjs" width="100%" height="100%" viewBox="0 0 1000 600"><rect width="1000" height="600" x="0" y="0" fill="#141a46"/><g><rect width="333.3333333333333" height="333.3333333333333" y="196.09625618215438" fill="#ec8b5e" transform="matrix(0.7189113389432006,0,0,0.7189113389432006,0,39.20563365052186)" x="173.87405395507812"/><path d="M261.6865586835251 433.47719717512996L269.6329870143726 431.7510067512006Q272.8472726313446 431.1260067701227 273.79965355489185 430.26291155815795Q274.75203447843916 429.3998163461933 274.75203447843916 427.04862594118595L274.75203447843916 427.04862594118595L274.75203447843916 298.47720126230547Q274.75203447843916 296.1260108572982 273.79965355489185 295.26291564533346Q272.8472726313446 294.39982043336875 269.6329870143726 293.7748204522909L269.6329870143726 293.7748204522909L261.6865586835251 292.04863002836146L261.6865586835251 287.7629158723988L327.252032888982 287.7629158723988Q372.2520315265902 287.7629158723988 395.82345938438493 304.69743916922357Q419.39488724217966 321.6319624660483 419.39488724217966 362.7629136017457L419.39488724217966 362.7629136017457Q419.39488724217966 403.89386473744315 395.82345938438493 420.8283880342679Q372.2520315265902 437.76291133109265 327.252032888982 437.76291133109265L327.252032888982 437.76291133109265L261.6865586835251 437.76291133109265L261.6865586835251 433.47719717512996ZM318.4722712500307 294.19148710634283L318.4722712500307 431.33434009714864L327.252032888982 431.33434009714864Q345.04965139777147 431.33434009714864 354.6925082486875 425.024816478648Q364.33536509960356 418.6855309562865 368.2044126015143 404.1319599683299Q372.04369819956423 389.54862707651245 372.04369819956423 362.7629136017457L372.04369819956423 362.7629136017457Q372.04369819956423 335.97720012697897 368.2044126015143 321.3938672351615Q364.33536509960356 306.8402962472049 354.6925082486875 300.5010107248434Q345.04965139777147 294.19148710634283 327.252032888982 294.19148710634283L327.252032888982 294.19148710634283L318.4722712500307 294.19148710634283Z " fill="#141a46" transform="matrix(0.7189113389432006,0,0,0.7189113389432006,0,39.20563365052186)"/><path d="M590.5407228070602 433.47719717512996L598.4871511379076 431.7510067512006Q601.7014367548798 431.1260067701227 602.653817678427 430.26291155815795Q603.6061986019743 429.3998163461933 603.6061986019743 427.04862594118595L603.6061986019743 427.04862594118595L603.6061986019743 298.47720126230547Q603.6061986019743 296.1260108572982 602.653817678427 295.26291564533346Q601.7014367548798 294.39982043336875 598.4871511379076 293.7748204522909L598.4871511379076 293.7748204522909L590.5407228070602 292.04863002836146L590.5407228070602 287.7629158723988L656.106197012517 287.7629158723988Q701.1061956501252 287.7629158723988 724.67762350792 304.69743916922357Q748.2490513657148 321.6319624660483 748.2490513657148 362.7629136017457L748.2490513657148 362.7629136017457Q748.2490513657148 403.89386473744315 724.67762350792 420.8283880342679Q701.1061956501252 437.76291133109265 656.106197012517 437.76291133109265L656.106197012517 437.76291133109265L590.5407228070602 437.76291133109265L590.5407228070602 433.47719717512996ZM647.3264353735658 294.19148710634283L647.3264353735658 431.33434009714864L656.106197012517 431.33434009714864Q673.9038155213066 431.33434009714864 683.5466723722226 425.024816478648Q693.1895292231387 418.6855309562865 697.0585767250494 404.1319599683299Q700.8978623230993 389.54862707651245 700.8978623230993 362.7629136017457L700.8978623230993 362.7629136017457Q700.8978623230993 335.97720012697897 697.0585767250494 321.3938672351615Q693.1895292231387 306.8402962472049 683.5466723722226 300.5010107248434Q673.9038155213066 294.19148710634283 656.106197012517 294.19148710634283L656.106197012517 294.19148710634283L647.3264353735658 294.19148710634283ZM765.8383365474782 433.47719717512996L773.7550029744649 431.7510067512006Q776.9692885914368 431.1260067701227 777.9514314188451 430.26291155815795Q778.9038123423924 429.3998163461933 778.9038123423924 427.04862594118595L778.9038123423924 427.04862594118595L778.9038123423924 298.47720126230547Q778.9038123423924 296.1260108572982 777.9514314188451 295.26291564533346Q776.9692885914368 294.39982043336875 773.7550029744649 293.7748204522909L773.7550029744649 293.7748204522909L765.8383365474782 292.04863002836146L765.8383365474782 287.7629158723988L897.8323801703567 287.7629158723988L897.8323801703567 329.54862889303496L892.4752374754033 329.54862889303496Q887.9811899924147 315.6200578861562 884.0228567789214 308.5367247672734Q880.0347616615674 301.48315355225157 872.9811904465454 297.8224393773667Q865.8978573276626 294.19148710634283 853.0407148597745 294.19148710634283L853.0407148597745 294.19148710634283L822.6240491139837 294.19148710634283L822.6240491139837 357.8224375608443L877.8919045835859 357.8224375608443L877.8919045835859 364.25100879478833L822.6240491139837 364.25100879478833L822.6240491139837 431.33434009714864L855.1835719377558 431.33434009714864Q867.8323810786179 431.33434009714864 875.1240475245266 427.4652925952379Q882.4157139704354 423.626006997188 886.5823805109547 416.33434055127924Q890.7490470514739 409.0426741053705 895.2728564383234 395.1141030984918L895.2728564383234 395.1141030984918L900.8383324603027 395.1141030984918L900.8383324603027 437.76291133109265L765.8383365474782 437.76291133109265L765.8383365474782 433.47719717512996ZM920.124046162135 433.47719717512996L928.0407125891214 431.7510067512006Q931.2549982060935 431.1260067701227 932.2371410335016 430.26291155815795Q933.1895219570489 429.3998163461933 933.1895219570489 427.04862594118595L933.1895219570489 427.04862594118595L933.1895219570489 298.47720126230547Q933.1895219570489 296.1260108572982 932.2371410335016 295.26291564533346Q931.2549982060935 294.39982043336875 928.0407125891214 293.7748204522909L928.0407125891214 293.7748204522909L920.124046162135 292.04863002836146L920.124046162135 287.7629158723988L1052.1180897850131 287.7629158723988L1052.1180897850131 329.54862889303496L1046.7609470900597 329.54862889303496Q1042.266899607071 315.6200578861562 1038.308566393578 308.5367247672734Q1034.3204712762235 301.48315355225157 1027.2669000612018 297.8224393773667Q1020.1835669423191 294.19148710634283 1007.3264244744311 294.19148710634283L1007.3264244744311 294.19148710634283L976.9097587286404 294.19148710634283L976.9097587286404 357.8224375608443L1032.1776141982423 357.8224375608443L1032.1776141982423 364.25100879478833L976.9097587286404 364.25100879478833L976.9097587286404 431.33434009714864L1009.4692815524126 431.33434009714864Q1022.1180906932744 431.33434009714864 1029.409757139183 427.4652925952379Q1036.701423585092 423.626006997188 1040.8680901256112 416.33434055127924Q1045.0347566661308 409.0426741053705 1049.55856605298 395.1141030984918L1049.55856605298 395.1141030984918L1055.1240420749596 395.1141030984918L1055.1240420749596 437.76291133109265L920.124046162135 437.76291133109265L920.124046162135 433.47719717512996ZM1217.1180847895766 332.9712478370329Q1217.1180847895766 350.3224377879096 1208.8740374201207 360.0843422542691Q1200.6299900506647 369.84624672062847 1183.249038195927 374.01291326114773Q1165.8978482450502 378.17957980166705 1136.7609443652764 378.17957980166705L1136.7609443652764 378.17957980166705L1131.1954683432969 378.17957980166705L1131.1954683432969 426.84029261416Q1131.1954683432969 429.19148301916726 1132.1478492668443 430.054578231132Q1133.1299920942524 430.9176734430967 1136.344277711224 431.54267342417455L1136.344277711224 431.54267342417455L1145.5407060042276 433.47719717512996L1145.5407060042276 437.76291133109265L1074.4097557767914 437.76291133109265L1074.4097557767914 433.47719717512996L1082.3264222037783 431.7510067512006Q1085.54070782075 431.1260067701227 1086.522850648158 430.26291155815795Q1087.4752315717055 429.3998163461933 1087.4752315717055 427.04862594118595L1087.4752315717055 427.04862594118595L1087.4752315717055 298.47720126230547Q1087.4752315717055 296.1260108572982 1086.522850648158 295.26291564533346Q1085.54070782075 294.39982043336875 1082.3264222037783 293.7748204522909L1082.3264222037783 293.7748204522909L1074.4097557767914 292.04863002836146L1074.4097557767914 287.7629158723988L1136.7609443652764 287.7629158723988Q1165.8978482450502 287.7629158723988 1183.249038195927 291.9295824129181Q1200.6299900506647 296.1260108572982 1208.8740374201207 305.8581534197968Q1217.1180847895766 315.6200578861562 1217.1180847895766 332.9712478370329L1217.1180847895766 332.9712478370329ZM1131.1954683432969 294.19148710634283L1131.1954683432969 371.751008567723L1138.6954681162315 371.751008567723Q1151.3442772570938 371.751008567723 1158.516896087559 367.9117229696731Q1165.6895149180245 364.04267546776236 1168.9038005349962 355.67958048286295Q1172.1180861519683 347.3462474018244 1172.1180861519683 332.9712478370329L1172.1180861519683 332.9712478370329Q1172.1180861519683 318.6260101761023 1168.9038005349962 310.26291519120286Q1165.6895149180245 301.8998202063035 1158.516896087559 298.06053460825353Q1151.3442772570938 294.19148710634283 1138.6954681162315 294.19148710634283L1138.6954681162315 294.19148710634283L1131.1954683432969 294.19148710634283Z " fill="#ec8b5e" transform="matrix(0.7189113389432006,0,0,0.7189113389432006,0,39.20563365052186)"/></g></svg>